# xmcd
# 
# Track frame offsets:
#     150
#     22924
#     46576
#     69162
#     96921
#     113497
#     115473
#     132361
#     136248
#     154657
#     176250
#     195152
#     214130
#     233951
#     252701
#     276770
#     296681
#     310383
#     329485
# 
# Disc length: 4667
# 
# Revision: 2
# Processed by: cddbd v1.5.2PL0 Copyright (c) Steve Scherf et al.
# Submitted via: fre:ac v1.0.31
# 
DISCID=0d123913
DTITLE=Eminem - Revival
DYEAR=2017
DGENRE=Rap
TTITLE0=Walk On Water (Feat. Beyonce)
TTITLE1=Believe
TTITLE2=Chloraseptic (Feat. Phresher)
TTITLE3=Untouchable
TTITLE4=River (Feat. Ed Sheeran)
TTITLE5=Remind Me (Intro)
TTITLE6=Remind Me
TTITLE7=Revival (Interlude)
TTITLE8=Like Home (Feat. Alicia Keys)
TTITLE9=Bad Husband (Feat. X Ambassadors)
TTITLE10=Tragic Endings (Feat. Skyler Grey)
TTITLE11=Framed
TTITLE12=Nowhere Fast (Feat. Kehlani)
TTITLE13=Heat
TTITLE14=Offended
TTITLE15=Need Me (Feat. Pink)
TTITLE16=In Your Head
TTITLE17=Castle
TTITLE18=Arose
EXTD=
EXTT0=
EXTT1=
EXTT2=
EXTT3=
EXTT4=
EXTT5=
EXTT6=
EXTT7=
EXTT8=
EXTT9=
EXTT10=
EXTT11=
EXTT12=
EXTT13=
EXTT14=
EXTT15=
EXTT16=
EXTT17=
EXTT18=
PLAYORDER=
